<svg xmlns="http://www.w3.org/2000/svg" width="466" height="466" viewBox="0 0 466 466" role="img" aria-label="M5Stack StopWatch launcher with Counter selected">
  <defs><clipPath id="round"><circle cx="233" cy="233" r="233"/></clipPath><radialGradient id="lcd" cx="50%" cy="45%" r="65%"><stop offset="0%" stop-color="#07101a"/><stop offset="100%" stop-color="#000000"/></radialGradient><filter id="shadow" x="-20%" y="-20%" width="140%" height="140%"><feDropShadow dx="0" dy="5" stdDeviation="8" flood-color="#000" flood-opacity="0.7"/></filter></defs>
  <circle cx="233" cy="233" r="233" fill="#050505"/>
  <g clip-path="url(#round)">
    <rect width="466" height="466" fill="url(#lcd)"/>
    <circle cx="233" cy="233" r="226" fill="none" stroke="#17202a" stroke-width="12"/>
    <path d="M142 42 A150 150 0 0 1 324 42" fill="none" stroke="#edf4ff" stroke-width="3" opacity="0.9"/>
    <text x="233" y="42" text-anchor="middle" fill="#edf4ff" font-size="20" font-family="Montserrat, Arial, sans-serif">12:45</text>
    <g opacity="0.28"><circle cx="-233" cy="218" r="72" fill="#202833"/><text x="-233" y="225" text-anchor="middle" fill="#ffffff" font-size="18">Timer</text></g>
    <g filter="url(#shadow)">
      <rect x="133" y="118" width="200" height="200" rx="52" fill="#121212" stroke="#8c8c8c" stroke-width="3"/>
      <rect x="168" y="154" width="130" height="128" rx="20" fill="#d5d5d5"/>
      <rect x="180" y="166" width="106" height="104" rx="12" fill="#1f1f1f"/>
      <rect x="192" y="180" width="82" height="30" rx="6" fill="#dcdcdc"/>
      <text x="233" y="204" text-anchor="middle" font-family="Menlo, Consolas, monospace" font-size="26" font-weight="700" fill="#111111">30</text>
      <circle cx="202" cy="238" r="13" fill="#f2c94c"/>
      <circle cx="264" cy="238" r="13" fill="#2d7dff"/>
      <rect x="194" y="257" width="78" height="7" rx="3" fill="#b7b7b7"/>
      <text x="202" y="242" text-anchor="middle" font-family="Arial" font-size="14" font-weight="700" fill="#111">−</text>
      <text x="264" y="243" text-anchor="middle" font-family="Arial" font-size="14" font-weight="700" fill="#fff">+</text>
    </g>
    <text x="233" y="388" text-anchor="middle" fill="#ffffff" font-size="26" font-weight="700" font-family="Montserrat, Arial, sans-serif">Counter</text>
    <text x="33" y="242" text-anchor="middle" fill="#ffffff" font-size="42" opacity="0.65">‹</text>
    <text x="433" y="242" text-anchor="middle" fill="#ffffff" font-size="42" opacity="0.65">›</text>
    <circle cx="201" cy="433" r="7" fill="#ffffff" opacity="0.45"/><circle cx="217" cy="433" r="7" fill="#ffffff" opacity="0.45"/><circle cx="233" cy="433" r="10" fill="#ffffff"/><circle cx="249" cy="433" r="7" fill="#ffffff" opacity="0.45"/><circle cx="265" cy="433" r="7" fill="#ffffff" opacity="0.45"/>
  </g>
</svg>
